<svg width="1515" height="917" viewBox="0 0 1515 917" fill="none" xmlns="http://www.w3.org/2000/svg">
    <path stroke="white" stroke-width="2" d="M898.13 96.6387C897.31 119.867 897.289 142.11 898.074 163.373V363.672L745.4 402.173C749.155 417.061 753.523 432.908 758.071 449.408C775.582 512.934 795.764 586.151 793.888 651.682C792.776 690.55 783.648 712.745 772.437 725.032C762.857 735.53 740.151 751.5 680.904 751.5C632.815 751.5 613.238 737.413 603.34 726.097C590.864 711.833 580.714 686.723 577.257 646.387C571.272 576.548 587.001 497.04 599.713 432.785L599.714 432.779L599.723 432.735C602.209 420.169 604.579 408.187 606.649 396.975L533.366 383.448C537.081 292.986 534.58 186.91 524.778 63.1446L326.399 78.8553C345.439 319.272 334.007 472.312 310.857 564.822C290.841 644.808 267.132 662.484 262.488 665.307C259.942 665.176 248.88 663.859 230.6 646.148C206.629 622.924 199 597.786 199 591.561H0C-1.52588e-05 667.791 42.8342 741.313 92.1316 789.073C141.156 836.569 225.682 885.222 321.084 855.678C369.294 840.748 407.645 809.707 437.656 767.459C447.597 791.158 461.049 814.039 479.144 834.726C526.817 889.23 595.971 916.5 680.904 916.5C770.449 916.5 844.071 891.317 894.32 836.25C895.595 834.852 896.846 833.445 898.074 832.028V834H1078.07V483.644C1129.94 499.701 1182.28 494.039 1226.62 479.183C1275.69 462.744 1320.48 433.472 1355.96 398.926C1391.11 364.698 1421.77 320.725 1436.44 271.349C1451.55 220.487 1450.4 158.979 1411.85 104.981C1374.9 53.2468 1314.7 24.173 1245.51 10.486C1175.73 -3.31936 1086.82 -3.6948 976.538 10.5589L900.826 20.3449L898.13 96.6387ZM1098.27 271.872C1089.93 251.626 1082.68 222.338 1079.38 181.413C1136.94 178.061 1179.74 180.962 1210.58 187.064C1254.86 195.824 1264.98 209.047 1265.36 209.584C1265.41 209.657 1265.42 209.631 1265.42 209.632C1265.43 209.632 1265.43 209.634 1265.43 209.642C1265.43 209.662 1265.43 209.721 1265.45 209.878C1265.55 210.764 1265.69 214.026 1263.9 220.08C1260.04 233.049 1249.32 251.521 1230.38 269.961C1211.77 288.083 1189.75 301.703 1169.45 308.506C1149.13 315.311 1136.03 313.717 1128.83 310.812C1123.34 308.601 1110.48 301.496 1098.27 271.872ZM1438.32 450.707C1333.47 447.995 1252.04 472.178 1198.92 520.523C1144.06 570.442 1127.93 638.606 1141.64 700.788C1168.58 822.997 1306.47 917.068 1469.55 858.745L1514.87 842.537L1510.77 794.581L1499.2 659.013V513.186V452.282L1438.32 450.707ZM1374.43 666.99L1381.61 751.141C1314.16 756.121 1272.2 712.401 1263.71 673.877C1258.81 651.643 1264.05 630.26 1283.05 612.972C1298.22 599.167 1326.33 584.387 1374.2 578.331V661.675V664.338L1374.43 666.99Z" />
</svg>