<svg width="753" height="344" viewBox="0 0 753 344" fill="none" xmlns="http://www.w3.org/2000/svg">
<path d="M267.367 155.496L257.51 157.373L252.816 148.456L248.122 157.373L238.265 155.496L242.333 164.726L234.667 171.14L244.367 173.643L244.68 183.655L252.66 177.71L260.639 183.655L260.952 173.643L270.653 171.14L262.986 164.569L267.367 155.496ZM266.429 170.045L259.231 171.922L258.918 179.431L252.973 174.894L247.027 179.431L246.714 171.922L239.517 170.045L245.306 165.195L242.02 158.312L249.374 159.72L252.816 152.993L256.259 159.72L263.612 158.312L260.639 165.195L266.429 170.045ZM228.878 103.871H242.333V122.487H262.986V103.871H276.442V122.487H296.939V103.871H310.395V122.487H313.993V100.429H293.497V119.045H280.041V100.272H259.388V118.889H245.932V100.272H225.279V122.487H228.878V103.871ZM225.279 199.299C225.279 223.86 245.15 243.728 269.558 243.728C294.122 243.728 313.993 223.86 313.993 199.299V135.784H225.279V199.299ZM310.551 139.382V188.504L261.422 139.382H310.551ZM228.878 139.382H256.259L310.395 193.51V199.299C310.395 214.16 302.415 227.145 290.68 234.341L228.878 172.548V139.382ZM228.878 177.554L287.395 236.062C282.075 238.722 275.973 240.129 269.558 240.129C247.027 240.129 228.721 221.826 228.721 199.299V177.554H228.878Z" fill="white"/>
<path d="M359.367 142.98C358.429 141.729 357.177 140.634 355.769 139.852C354.204 139.069 352.483 138.6 350.293 138.6C349.197 138.6 348.102 138.757 347.007 139.069C345.912 139.382 344.816 139.852 344.034 140.634C343.095 141.26 342.313 142.198 341.844 143.137C341.218 144.232 341.061 145.327 341.061 146.735C341.061 148.143 341.374 149.238 341.844 150.177C342.313 151.115 343.095 151.898 344.034 152.523C344.973 153.149 345.912 153.618 347.007 154.088C348.102 154.557 349.354 154.87 350.605 155.339C352.17 155.808 353.735 156.434 355.299 156.904C356.864 157.529 358.272 158.312 359.524 159.25C360.775 160.189 361.714 161.44 362.497 162.848C363.279 164.256 363.748 166.134 363.748 168.324C363.748 170.514 363.279 172.391 362.497 173.955C361.714 175.52 360.619 176.928 359.211 177.866C357.803 178.962 356.395 179.744 354.673 180.213C352.952 180.682 351.231 180.995 349.51 180.995C348.258 180.995 346.85 180.839 345.599 180.526C344.347 180.213 342.939 179.9 341.844 179.274C340.592 178.805 339.497 178.023 338.558 177.241C337.619 176.459 336.68 175.52 335.898 174.425L339.81 171.609C340.748 173.173 342.156 174.425 343.878 175.52C345.599 176.615 347.633 177.084 349.98 177.084C351.075 177.084 352.17 176.928 353.422 176.615C354.517 176.302 355.612 175.676 356.551 175.051C357.49 174.268 358.272 173.486 358.898 172.391C359.524 171.296 359.837 170.045 359.837 168.637C359.837 167.072 359.524 165.821 358.898 164.726C358.272 163.63 357.49 162.848 356.551 162.223C355.612 161.597 354.361 160.971 353.109 160.502C351.857 160.032 350.449 159.563 349.041 159.094C347.633 158.624 346.224 158.155 344.816 157.529C343.408 156.904 342.156 156.121 341.061 155.339C339.966 154.557 339.027 153.305 338.401 151.898C337.775 150.49 337.306 148.925 337.306 146.891C337.306 144.701 337.775 142.98 338.558 141.416C339.34 139.852 340.435 138.6 341.844 137.661C343.252 136.723 344.66 135.941 346.381 135.471C348.102 135.002 349.667 134.846 351.231 134.846C354.204 134.846 356.707 135.315 358.898 136.41C360.932 137.505 362.653 138.757 363.748 140.165L359.367 142.98Z" fill="white"/>
<path d="M387.687 179.744H383.15V139.852H368.442V135.784H402.395V139.695H387.687V179.744Z" fill="white"/>
<path d="M405.524 179.744H400.673L419.605 135.784H423.986L442.918 179.744H437.912L433.061 168.167H410.374L405.524 179.744ZM412.095 164.1H431.497L421.796 140.79L412.095 164.1Z" fill="white"/>
<path d="M451.211 135.784H465.762C468.422 135.784 471.238 136.254 474.054 137.192C476.871 138.131 479.218 139.539 481.565 141.26C483.755 143.137 485.633 145.327 486.884 148.143C488.293 150.959 488.918 154.088 488.918 157.686C488.918 161.44 488.293 164.569 486.884 167.385C485.476 170.044 483.755 172.391 481.565 174.268C479.374 176.146 476.871 177.554 474.054 178.336C471.238 179.274 468.578 179.744 465.762 179.744H451.211V135.784ZM455.592 175.833H464.51C467.796 175.833 470.769 175.363 473.116 174.268C475.619 173.173 477.653 171.922 479.218 170.201C480.782 168.48 482.034 166.603 482.816 164.413C483.599 162.223 484.068 160.032 484.068 157.842C484.068 155.652 483.599 153.305 482.816 151.272C482.034 149.082 480.782 147.204 479.218 145.483C477.653 143.763 475.619 142.511 473.116 141.416C470.612 140.321 467.796 139.852 464.51 139.852H455.592V175.833Z" fill="white"/>
<path d="M512.857 179.744H508.32V139.852H493.612V135.784H527.565V139.695H512.857V179.744Z" fill="white"/>
<path d="M359.367 207.277V242.163H348.728V207.277H336.367V198.204H371.884V207.277H359.367Z" fill="white"/>
<path d="M409.279 242.163V223.703H392.068V242.163H381.429V198.204H392.068V214.786H409.279V198.204H419.918V242.163H409.279Z" fill="white"/>
<path d="M469.83 232.777C468.891 234.967 467.639 236.844 466.075 238.409C464.51 239.973 462.476 241.225 460.129 242.007C457.782 242.945 455.122 243.258 452.306 243.258C449.333 243.258 446.83 242.789 444.483 242.007C442.136 241.068 440.258 239.973 438.537 238.409C436.816 236.844 435.721 234.967 434.782 232.777C433.844 230.587 433.531 228.24 433.531 225.581V198.204H444.17V224.798C444.17 226.05 444.327 227.145 444.639 228.24C444.952 229.335 445.422 230.274 446.048 231.056C446.673 231.838 447.456 232.62 448.551 233.09C449.646 233.559 450.898 233.872 452.306 233.872C453.714 233.872 455.122 233.559 456.061 233.09C457.156 232.62 457.939 231.995 458.565 231.056C459.19 230.117 459.66 229.179 459.973 228.24C460.286 227.145 460.442 226.05 460.442 224.798V198.204H471.082V225.581C471.238 228.24 470.769 230.743 469.83 232.777Z" fill="white"/>
<path d="M512.701 242.163L495.02 213.378H494.864L495.177 242.163H484.85V198.204H496.898L514.578 226.832H514.735L514.422 198.204H524.748V242.163H512.701Z" fill="white"/>
</svg>
